# xmcd
#
# Track frame offsets: 
#        150
#        34300
#        73200
#        99162
#        119375
#        151525
#        195700
#        233337
#        254915
#        282075
#
# Disc length: 4213 seconds
#
# Revision: 0
# Processed by: cddbd v1.5.2PL0 Copyright (c) Steve Scherf et al.
# Submitted via: ExactAudioCopy v1.0b1
#
DISCID=8310730a
DTITLE=Yaara Tal, Andreas Groethuysen - Czerny: Piano Music for Four H
DTITLE=ands
DYEAR=1990
DGENRE=Piano
TTITLE0=Ouverture charactéristique et brillante, piano (4 hands), b mi
TTITLE0=nor   Allegro vivo e spiritoso  Op. 54
TTITLE1=Grande Sonate brillante, piano (4 hands), c minor   Allegro ag
TTITLE1=itato  Op. 10
TTITLE2=Grande Sonate brillante, piano (4 hands), c minor   Andante co
TTITLE2=n sentimento  Op. 10
TTITLE3=Grande Sonate brillante, piano (4 hands), c minor   Scherzo: P
TTITLE3=resto  Op. 10
TTITLE4=Grande Sonate brillante, piano (4 hands), c minor   Rondo: All
TTITLE4=egro vivace e grazioso  Op. 10
TTITLE5=Fantaisie, piano (4 hands), f minor   Allegro con spirito - An
TTITLE5=dantino - Scherzo: Presto - Allegro - Tempo I  Op. 226
TTITLE6=Grande Sonate, piano (4 hands), f minor   Allegro spiritoso  O
TTITLE6=p. 178
TTITLE7=Grande Sonate, piano (4 hands), f minor   Adagio  Op. 178
TTITLE8=Grande Sonate, piano (4 hands), f minor   Scherzo: Allegro viv
TTITLE8=o  Op. 178
TTITLE9=Grande Sonate, piano (4 hands), f minor   Finale: Allegro molt
TTITLE9=o agitato  Op. 178
EXTD=
EXTT0=
EXTT1=
EXTT2=
EXTT3=
EXTT4=
EXTT5=
EXTT6=
EXTT7=
EXTT8=
EXTT9=
PLAYORDER=
